# xmcd
#
# Track frame offsets:
#	150
#	13872
#	22937
#	33222
#	43971
#	53321
#	61776
#	76788
#	88293
#	101145
#
# Disc length: 1506 seconds
#
# Revision: 2
# Processed by: cddbd v1.5.2PL0 Copyright (c) Steve Scherf et al.
# Submitted via: audiograbber 1.83.01
#
DISCID=6f05e00a
DTITLE=Dalida - Love In Portofino
DYEAR=1959
DGENRE=Variété Française
TTITLE0=Love In Portofino
TTITLE1=C'est Ca L'amore
TTITLE2=Adonis
TTITLE3=Pilou Pilou He
TTITLE4=Marina
TTITLE5=Ne Joue Pas
TTITLE6=Luna Caprese
TTITLE7=J'ai Reve
TTITLE8=La Chanson D'Orphee
TTITLE9=Elle, Lui Et L'autre
EXTD=1959
EXTT0=
EXTT1=
EXTT2=
EXTT3=
EXTT4=
EXTT5=
EXTT6=
EXTT7=
EXTT8=
EXTT9=
PLAYORDER=
